<?xml version="1.0" encoding="UTF-8"?>
<svg version="1.1" xmlns="http://www.w3.org/2000/svg" width="57" height="41">
<path d="M0 0 C1.08087891 -0.020625 2.16175781 -0.04125 3.27539062 -0.0625 C10.02925018 -0.09566813 14.91595529 0.17049565 20.05078125 5.00390625 C20.52902344 5.60074219 21.00726563 6.19757812 21.5 6.8125 C22.23669922 7.71162109 22.23669922 7.71162109 22.98828125 8.62890625 C26.23035888 13.01151933 25.70883691 18.00766775 25.1875 23.25 C23.56199403 28.09118084 20.51687151 31.59334021 16.1875 34.25 C7.04204832 37.70111384 -5.94509317 37.92477649 -15.05078125 34.23046875 C-17.88507345 32.65306888 -19.78239368 30.7577784 -21.8125 28.25 C-22.7096875 27.1671875 -22.7096875 27.1671875 -23.625 26.0625 C-25.85795927 20.77391225 -25.51383103 15.39524786 -23.75 10 C-17.23161256 0.74809524 -10.74007628 0.05069063 0 0 Z M-0.8125 3.25 C-0.8125 5.23 -0.8125 7.21 -0.8125 9.25 C-1.47636719 9.19199219 -2.14023437 9.13398438 -2.82421875 9.07421875 C-7.42705199 8.83903749 -10.00350229 8.71606151 -13.9375 11.3125 C-16.30272795 15.01802378 -16.50748979 16.92561906 -15.8125 21.25 C-13.70201006 25.28745902 -11.49969641 26.53675271 -7.3125 27.875 C-6.13880859 28.21337891 -6.13880859 28.21337891 -4.94140625 28.55859375 C-2.47641055 29.35915199 -0.72308788 30.50555019 1.1875 32.25 C1.1875 30.6 1.1875 28.95 1.1875 27.25 C2.404375 27.311875 3.62125 27.37375 4.875 27.4375 C8.80607111 27.42360929 11.08440046 26.82113962 14.1875 24.25 C16.26726712 22.08928533 16.26726712 22.08928533 17.1875 19.25 C16.61926127 15.58801706 16.05043898 13.17686038 13.5 10.4375 C11.07723498 9.09272957 11.07723498 9.09272957 7.75 8.3125 C4.04294706 7.20688772 2.02178259 5.82662054 -0.8125 3.25 Z " fill="#4DEBB6" transform="translate(28.8125,2.75)"/>
<path d="M0 0 C14.27589655 -0.5718831 14.27589655 -0.5718831 19 3 C24.56422162 8.69607522 26.36530107 12.14499768 26.28125 20.171875 C25.74555903 25.55854536 23.40601412 28.69686496 19.4375 32.375 C15.47639849 35.01573434 12.46686867 35.11254697 7.8125 35.0625 C6.18248047 35.04896484 6.18248047 35.04896484 4.51953125 35.03515625 C3.68808594 35.02355469 2.85664063 35.01195312 2 35 C2 32.36 2 29.72 2 27 C2.75925781 26.89042969 3.51851562 26.78085937 4.30078125 26.66796875 C5.29464844 26.50941406 6.28851563 26.35085937 7.3125 26.1875 C8.29863281 26.03667969 9.28476562 25.88585937 10.30078125 25.73046875 C13.1636126 24.95572278 14.23035499 24.33061091 16 22 C17.03152764 18.98476536 17.1105941 17.39629554 16.25 14.3125 C15.07878737 11.7143872 15.07878737 11.7143872 12 10 C10.88625 9.731875 9.7725 9.46375 8.625 9.1875 C4.51268696 7.84036297 2.69315524 6.34604136 0 3 C0 2.01 0 1.02 0 0 Z " fill="#1A8EF5" transform="translate(28,3)"/>
<path d="M0 0 C1.06734375 -0.01740234 1.06734375 -0.01740234 2.15625 -0.03515625 C5.33974927 -0.01733816 7.64928272 0.186067 10.47265625 1.70703125 C12 3.375 12 3.375 12.4375 6.4375 C12.293125 7.406875 12.14875 8.37625 12 9.375 C7.92926875 12.08882083 4.77671888 11.70627641 0 11.6875 C-1.22976562 11.71166992 -1.22976562 11.71166992 -2.484375 11.73632812 C-3.27328125 11.73697266 -4.0621875 11.73761719 -4.875 11.73828125 C-5.59429688 11.74126221 -6.31359375 11.74424316 -7.0546875 11.74731445 C-9.56540949 11.26678596 -10.44838671 10.37150857 -12 8.375 C-12.4375 5.875 -12.4375 5.875 -12 3.375 C-8.56908022 -0.29283752 -4.7138813 -0.07685676 0 0 Z " fill="#93CBF9" transform="translate(29,14.625)"/>
<path d="M0 0 C2.1640625 0.0234375 2.1640625 0.0234375 4.625 0.375 C5.85089844 0.54128906 5.85089844 0.54128906 7.1015625 0.7109375 C7.72804688 0.80632813 8.35453125 0.90171875 9 1 C9 3.31 9 5.62 9 8 C4.58937864 9.0257259 2.07369424 9.03684712 -2 7 C-2.125 4.625 -2.125 4.625 -2 2 C-1.34 1.34 -0.68 0.68 0 0 Z " fill="#118AF7" transform="translate(19,16)"/>
<path d="M0 0 C2.58396679 -0.08112454 5.16537568 -0.14054748 7.75 -0.1875 C8.47960938 -0.21263672 9.20921875 -0.23777344 9.9609375 -0.26367188 C13.21960783 -0.30810829 15.58155659 -0.2220312 18.48828125 1.3203125 C20 3 20 3 20.4375 6.0625 C20.293125 7.031875 20.14875 8.00125 20 9 C16.77208445 11.1519437 15.71599191 11.20086443 12 11 C12.33 10.34 12.66 9.68 13 9 C13.04022391 6.6670134 13.04320247 4.33293334 13 2 C8.71 1.67 4.42 1.34 0 1 C0 0.67 0 0.34 0 0 Z " fill="#CFE9F3" transform="translate(21,15)"/>
<path d="M0 0 C1.99954746 -0.04254356 4.00041636 -0.04080783 6 0 C7 1 7 1 7.125 4.5 C7 8 7 8 6 9 C4.33382885 9.04063832 2.66611905 9.042721 1 9 C1.66 8.67 2.32 8.34 3 8 C3 5.69 3 3.38 3 1 C2.01 0.67 1.02 0.34 0 0 Z " fill="#69B7FC" transform="translate(25,16)"/>
<path d="M0 0 C2.97 0.33 5.94 0.66 9 1 C9 3.31 9 5.62 9 8 C7.68 8.33 6.36 8.66 5 9 C5 6.36 5 3.72 5 1 C3.35 1 1.7 1 0 1 C0 0.67 0 0.34 0 0 Z " fill="#359CF9" transform="translate(19,16)"/>
<path d="M0 0 C0.99 0.33 1.98 0.66 3 1 C3 2.98 3 4.96 3 7 C1.02 7.99 1.02 7.99 -1 9 C-1.09765625 2.84765625 -1.09765625 2.84765625 -1 1 C-0.67 0.67 -0.34 0.34 0 0 Z " fill="#D7ECF9" transform="translate(38,17)"/>
</svg>
