<svg xmlns="http://www.w3.org/2000/svg" width="60" height="60"><path fill="#003B74" d="M22 10h8l10 23 1-23h8v30l-6 1 4 3c-.564 3.27-1.457 4.864-4 7-3.521 1.76-7.147 1.568-10.887.422C21.84 46.837 13.963 37.926 9 28c-.522-6.264.079-9.098 4-14l6 2zm3 9-1 6-3-1-1 4h9l-3-9zm-6 9 1 2Zm5 7c2.657 3.739 4.581 5.65 9 7l2-3-2-4z"/><path fill="#003971" d="m11.582 1.58 2.73-.048h2.93l3.034-.024q3.174-.015 6.35-.009c3.23.001 6.46-.04 9.69-.085q3.089-.008 6.176-.008l2.917-.05c4.446.046 7.618.17 11.185 2.994 3.994 4.4 3.58 8.614 3.61 14.263l.016 2.567q.014 2.69.02 5.38c.01 2.732.04 5.464.072 8.196q.01 2.616.016 5.232l.038 2.463C60.346 47.366 59.784 50.776 57 55c-2.887 2.598-4.73 3.378-8.597 3.404-1.357.02-1.357.02-2.741.038l-2.94-.008-3.04.015q-3.182.01-6.362-.003a783 783 0 0 0-9.724.052q-3.093.003-6.186-.002l-2.933.034c-4.2-.043-6.8-.145-10.503-2.249C-.26 51.387-.308 46.675-.3 40.411l-.013-2.492a895 895 0 0 1-.002-5.202c.003-2.642-.02-5.284-.045-7.926q-.004-2.535-.002-5.068l-.028-2.378C-.351 12.511.28 9.16 3 5c2.879-2.59 4.726-3.379 8.582-3.42m-5.12 5.89C4.271 11.26 4.407 14.692 4.433 19l-.02 2.645a514 514 0 0 0 .01 5.527c.013 2.819-.02 5.634-.059 8.453q0 2.687.006 5.375l-.04 2.55c.062 3.91.188 5.833 2.642 8.98 4.123 2.003 7.559 2.045 12.09 2.001l2.633.012q2.748.004 5.496-.022c2.8-.02 5.595 0 8.394.026q2.676-.004 5.351-.016l2.526.025c3.746-.06 6.152-.369 9.562-2.027C55.937 48.8 55.72 45.615 55.665 41l.014-2.645q.005-2.764-.027-5.527c-.027-2.819 0-5.634.032-8.453q-.005-2.688-.02-5.375l.03-2.55c-.077-3.895-.22-5.838-2.653-8.98-4.197-2.029-7.75-2.045-12.357-2.001l-2.708-.012q-2.825-.004-5.65.022c-2.883.021-5.762 0-8.644-.026q-2.75.004-5.498.016l-2.608-.025c-3.62.057-5.946.19-9.115 2.027"/><path fill="#003D78" d="M13 14c4.64 1.465 4.64 1.465 6.168 3.734 1.301 3.543.819 6.89.61 10.61C20.04 31.48 21.011 32.634 23 35v2l1.625.313c3 .868 5.613 2.243 8.375 3.687l1-1q3.5-.062 7 0v2l5 1c.75 1.75.75 1.75 1 4-2.812 3.394-4.718 4.872-9.125 5.313C28.633 51.567 22.205 45.506 16 39c-4.19-5.45-7.34-9.857-7.3-16.89.49-3.447 2.15-5.422 4.3-8.11"/><path fill="#003065" d="M11.677 1.66h2.79l2.986.047 3.077.013c3.24.017 6.48.054 9.72.092q3.297.024 6.594.042Q44.92 1.904 53 2v1L9 4l41 1v1l-3.7.044c-4.533.058-9.065.135-13.597.218q-2.943.051-5.884.084c-2.82.034-5.64.086-8.46.142l-2.655.02c-4.54.11-7.27.22-10.704 3.492H3L2 52C-.55 48.176-.306 45.04-.3 40.605l-.014-2.5a907 907 0 0 1-.002-5.237c.003-2.66-.02-5.32-.045-7.98q-.004-2.547-.002-5.095l-.028-2.396C-.351 12.543.266 9.175 3 5c2.92-2.643 4.758-3.373 8.677-3.34"/><path fill="#00417D" d="M42 11h6v29h-6z"/><path fill="#021C3B" d="M41 10h8v30h-1V11h-6l1 31h-2v-2h-6l-1-2h6z"/><path fill="#01254E" d="M20 28h11v2h-9l-1 2-2-2z"/></svg>